<svg xmlns="http://www.w3.org/2000/svg" width="1536" height="1024" viewBox="0 0 1536 1024">
<defs>
      <filter id="shadow" x="-20%" y="-20%" width="140%" height="140%"><feDropShadow dx="0" dy="18" stdDeviation="18" flood-color="#14213d" flood-opacity="0.10"/></filter>
      <marker id="arrow" markerWidth="14" markerHeight="14" refX="11" refY="7" orient="auto"><path d="M2,2 L12,7 L2,12 Z" fill="#64748b"/></marker>
      <marker id="arrowBlue" markerWidth="14" markerHeight="14" refX="11" refY="7" orient="auto"><path d="M2,2 L12,7 L2,12 Z" fill="#2f6feb"/></marker>
      <linearGradient id="hero" x1="0" x2="1"><stop offset="0" stop-color="#0f172a"/><stop offset="0.55" stop-color="#12324a"/><stop offset="1" stop-color="#075985"/></linearGradient>
    </defs>
<rect width="1536" height="1024" fill="#f8fafc"/>
<path d="M0 210 C230 145 370 260 570 180 C850 70 1120 110 1536 18 L1536 0 L0 0 Z" fill="#eaf4ff"/>
<path d="M0 1024 L1536 1024 L1536 830 C1260 890 980 800 720 874 C450 950 240 870 0 930 Z" fill="#f0f7f4"/>
<text x="88" y="82" text-anchor="start" font-family="-apple-system,BlinkMacSystemFont,'Segoe UI','PingFang SC','Microsoft YaHei',Arial,sans-serif" font-size="44" font-weight="760" fill="#162033">
<tspan x="88" dy="0">Tokenizer 演进</tspan>
</text>
<text x="90" y="132" text-anchor="start" font-family="-apple-system,BlinkMacSystemFont,'Segoe UI','PingFang SC','Microsoft YaHei',Arial,sans-serif" font-size="22" font-weight="500" fill="#5f6f86">
<tspan x="90" dy="0">从语义 token 到多任务音频理解 token</tspan>
</text>
<rect x="90" y="298" width="130" height="42" rx="21" fill="#2f6feb" opacity="0.10" stroke="#2f6feb" stroke-width="1.2"/>
<text x="155" y="325" text-anchor="middle" font-family="-apple-system,BlinkMacSystemFont,'Segoe UI','PingFang SC','Microsoft YaHei',Arial,sans-serif" font-size="17" font-weight="720" fill="#2f6feb">
<tspan x="155" dy="0">01</tspan>
</text>
<g filter="url(#shadow)">
<rect x="90" y="360" width="433.3333333333333" height="230" rx="18" fill="#ffffff" stroke="#cbd5e1" stroke-width="1.4"/>
<rect x="90" y="360" width="8" height="230" rx="4" fill="#2f6feb"/>
</g>
<text x="118" y="402" text-anchor="start" font-family="-apple-system,BlinkMacSystemFont,'Segoe UI','PingFang SC','Microsoft YaHei',Arial,sans-serif" font-size="23" font-weight="750" fill="#162033">
<tspan x="118" dy="0">V1：S3 token</tspan>
</text>
<text x="118" y="442" text-anchor="start" font-family="-apple-system,BlinkMacSystemFont,'Segoe UI','PingFang SC','Microsoft YaHei',Arial,sans-serif" font-size="18" font-weight="500" fill="#5f6f86">
<tspan x="118" dy="0">ASR encoder +</tspan>
<tspan x="118" dy="23.04">VQ，突出语义和文本对齐</tspan>
</text>
<line x1="531.3333333333333" y1="475" x2="543.3333333333333" y2="475" stroke="#94a3b8" stroke-width="2.2" marker-end="url(#arrow)"/>
<rect x="551.3333333333333" y="298" width="130" height="42" rx="21" fill="#1f9d67" opacity="0.10" stroke="#1f9d67" stroke-width="1.2"/>
<text x="616.3333333333333" y="325" text-anchor="middle" font-family="-apple-system,BlinkMacSystemFont,'Segoe UI','PingFang SC','Microsoft YaHei',Arial,sans-serif" font-size="17" font-weight="720" fill="#1f9d67">
<tspan x="616.3333333333333" dy="0">02</tspan>
</text>
<g filter="url(#shadow)">
<rect x="551.3333333333333" y="360" width="433.3333333333333" height="230" rx="18" fill="#ffffff" stroke="#cbd5e1" stroke-width="1.4"/>
<rect x="551.3333333333333" y="360" width="8" height="230" rx="4" fill="#1f9d67"/>
</g>
<text x="579.3333333333333" y="402" text-anchor="start" font-family="-apple-system,BlinkMacSystemFont,'Segoe UI','PingFang SC','Microsoft YaHei',Arial,sans-serif" font-size="23" font-weight="750" fill="#162033">
<tspan x="579.3333333333333" dy="0">V2：FSQ token</tspan>
</text>
<text x="579.3333333333333" y="442" text-anchor="start" font-family="-apple-system,BlinkMacSystemFont,'Segoe UI','PingFang SC','Microsoft YaHei',Arial,sans-serif" font-size="18" font-weight="500" fill="#5f6f86">
<tspan x="579.3333333333333" dy="0">提高 codebook</tspan>
<tspan x="579.3333333333333" dy="23.04">利用率，支持更稳序列生成</tspan>
</text>
<line x1="992.6666666666665" y1="475" x2="1004.6666666666665" y2="475" stroke="#94a3b8" stroke-width="2.2" marker-end="url(#arrow)"/>
<rect x="1012.6666666666666" y="298" width="130" height="42" rx="21" fill="#c2415a" opacity="0.10" stroke="#c2415a" stroke-width="1.2"/>
<text x="1077.6666666666665" y="325" text-anchor="middle" font-family="-apple-system,BlinkMacSystemFont,'Segoe UI','PingFang SC','Microsoft YaHei',Arial,sans-serif" font-size="17" font-weight="720" fill="#c2415a">
<tspan x="1077.6666666666665" dy="0">03</tspan>
</text>
<g filter="url(#shadow)">
<rect x="1012.6666666666666" y="360" width="433.3333333333333" height="230" rx="18" fill="#ffffff" stroke="#cbd5e1" stroke-width="1.4"/>
<rect x="1012.6666666666666" y="360" width="8" height="230" rx="4" fill="#c2415a"/>
</g>
<text x="1040.6666666666665" y="402" text-anchor="start" font-family="-apple-system,BlinkMacSystemFont,'Segoe UI','PingFang SC','Microsoft YaHei',Arial,sans-serif" font-size="23" font-weight="750" fill="#162033">
<tspan x="1040.6666666666665" dy="0">V3：MinMo token</tspan>
</text>
<text x="1040.6666666666665" y="442" text-anchor="start" font-family="-apple-system,BlinkMacSystemFont,'Segoe UI','PingFang SC','Microsoft YaHei',Arial,sans-serif" font-size="18" font-weight="500" fill="#5f6f86">
<tspan x="1040.6666666666665" dy="0">ASR/LID/SER/AED/SA</tspan>
<tspan x="1040.6666666666665" dy="23.04">多任务监督</tspan>
</text>
</svg>