<svg xmlns="http://www.w3.org/2000/svg" width="1536" height="1024" viewBox="0 0 1536 1024">
<defs>
      <filter id="shadow" x="-20%" y="-20%" width="140%" height="140%"><feDropShadow dx="0" dy="18" stdDeviation="18" flood-color="#14213d" flood-opacity="0.10"/></filter>
      <marker id="arrow" markerWidth="14" markerHeight="14" refX="11" refY="7" orient="auto"><path d="M2,2 L12,7 L2,12 Z" fill="#64748b"/></marker>
      <marker id="arrowBlue" markerWidth="14" markerHeight="14" refX="11" refY="7" orient="auto"><path d="M2,2 L12,7 L2,12 Z" fill="#2f6feb"/></marker>
      <linearGradient id="hero" x1="0" x2="1"><stop offset="0" stop-color="#0f172a"/><stop offset="0.55" stop-color="#12324a"/><stop offset="1" stop-color="#075985"/></linearGradient>
    </defs>
<rect width="1536" height="1024" fill="#f8fafc"/>
<path d="M0 210 C230 145 370 260 570 180 C850 70 1120 110 1536 18 L1536 0 L0 0 Z" fill="#eaf4ff"/>
<path d="M0 1024 L1536 1024 L1536 830 C1260 890 980 800 720 874 C450 950 240 870 0 930 Z" fill="#f0f7f4"/>
<rect width="1536" height="1024" fill="url(#hero)"/>
<g opacity="0.18"><line x1="80" y1="120" x2="30" y2="900" stroke="#ffffff" stroke-width="1"/><line x1="175" y1="120" x2="125" y2="900" stroke="#ffffff" stroke-width="1"/><line x1="270" y1="120" x2="220" y2="900" stroke="#ffffff" stroke-width="1"/><line x1="365" y1="120" x2="315" y2="900" stroke="#ffffff" stroke-width="1"/><line x1="460" y1="120" x2="410" y2="900" stroke="#ffffff" stroke-width="1"/><line x1="555" y1="120" x2="505" y2="900" stroke="#ffffff" stroke-width="1"/><line x1="650" y1="120" x2="600" y2="900" stroke="#ffffff" stroke-width="1"/><line x1="745" y1="120" x2="695" y2="900" stroke="#ffffff" stroke-width="1"/><line x1="840" y1="120" x2="790" y2="900" stroke="#ffffff" stroke-width="1"/><line x1="935" y1="120" x2="885" y2="900" stroke="#ffffff" stroke-width="1"/><line x1="1030" y1="120" x2="980" y2="900" stroke="#ffffff" stroke-width="1"/><line x1="1125" y1="120" x2="1075" y2="900" stroke="#ffffff" stroke-width="1"/><line x1="1220" y1="120" x2="1170" y2="900" stroke="#ffffff" stroke-width="1"/><line x1="1315" y1="120" x2="1265" y2="900" stroke="#ffffff" stroke-width="1"/><line x1="1410" y1="120" x2="1360" y2="900" stroke="#ffffff" stroke-width="1"/><line x1="1505" y1="120" x2="1455" y2="900" stroke="#ffffff" stroke-width="1"/></g>
<text x="100" y="180" text-anchor="start" font-family="-apple-system,BlinkMacSystemFont,'Segoe UI','PingFang SC','Microsoft YaHei',Arial,sans-serif" font-size="94" font-weight="820" fill="#ffffff">
<tspan x="100" dy="0">CosyVoice</tspan>
</text>
<text x="106" y="250" text-anchor="start" font-family="-apple-system,BlinkMacSystemFont,'Segoe UI','PingFang SC','Microsoft YaHei',Arial,sans-serif" font-size="34" font-weight="500" fill="#dbeafe">
<tspan x="106" dy="0">从 speech token 到 Flow Matching</tspan>
<tspan x="106" dy="43.52">的系统学习图谱</tspan>
</text>
<rect x="150" y="430" width="190" height="110" rx="18" fill="#ffffff" opacity="0.94"/><rect x="150" y="430" width="8" height="110" rx="4" fill="#2f6feb"/>
<text x="245" y="496" text-anchor="middle" font-family="-apple-system,BlinkMacSystemFont,'Segoe UI','PingFang SC','Microsoft YaHei',Arial,sans-serif" font-size="25" font-weight="760" fill="#162033">
<tspan x="245" dy="0">Text</tspan>
</text>
<line x1="355" y1="485" x2="405" y2="395" stroke="#bfdbfe" stroke-width="3" marker-end="url(#arrow)"/>
<rect x="420" y="340" width="190" height="110" rx="18" fill="#ffffff" opacity="0.94"/><rect x="420" y="340" width="8" height="110" rx="4" fill="#1f9d67"/>
<text x="515" y="406" text-anchor="middle" font-family="-apple-system,BlinkMacSystemFont,'Segoe UI','PingFang SC','Microsoft YaHei',Arial,sans-serif" font-size="25" font-weight="760" fill="#162033">
<tspan x="515" dy="0">Tokenizer</tspan>
</text>
<line x1="625" y1="395" x2="675" y2="485" stroke="#bfdbfe" stroke-width="3" marker-end="url(#arrow)"/>
<rect x="690" y="430" width="190" height="110" rx="18" fill="#ffffff" opacity="0.94"/><rect x="690" y="430" width="8" height="110" rx="4" fill="#6d5bd0"/>
<text x="785" y="496" text-anchor="middle" font-family="-apple-system,BlinkMacSystemFont,'Segoe UI','PingFang SC','Microsoft YaHei',Arial,sans-serif" font-size="25" font-weight="760" fill="#162033">
<tspan x="785" dy="0">LLM</tspan>
</text>
<line x1="895" y1="485" x2="945" y2="395" stroke="#bfdbfe" stroke-width="3" marker-end="url(#arrow)"/>
<rect x="960" y="340" width="190" height="110" rx="18" fill="#ffffff" opacity="0.94"/><rect x="960" y="340" width="8" height="110" rx="4" fill="#0ea5b7"/>
<text x="1055" y="406" text-anchor="middle" font-family="-apple-system,BlinkMacSystemFont,'Segoe UI','PingFang SC','Microsoft YaHei',Arial,sans-serif" font-size="25" font-weight="760" fill="#162033">
<tspan x="1055" dy="0">CFM</tspan>
</text>
<line x1="1165" y1="395" x2="1215" y2="485" stroke="#bfdbfe" stroke-width="3" marker-end="url(#arrow)"/>
<rect x="1230" y="430" width="190" height="110" rx="18" fill="#ffffff" opacity="0.94"/><rect x="1230" y="430" width="8" height="110" rx="4" fill="#b7791f"/>
<text x="1325" y="496" text-anchor="middle" font-family="-apple-system,BlinkMacSystemFont,'Segoe UI','PingFang SC','Microsoft YaHei',Arial,sans-serif" font-size="25" font-weight="760" fill="#162033">
<tspan x="1325" dy="0">Waveform</tspan>
</text>
<text x="108" y="820" text-anchor="start" font-family="-apple-system,BlinkMacSystemFont,'Segoe UI','PingFang SC','Microsoft YaHei',Arial,sans-serif" font-size="30" font-weight="500" fill="#e0f2fe">
<tspan x="108" dy="0">LLM 生成离散语义，Flow Matching</tspan>
<tspan x="108" dy="38.4">渲染连续声学，Vocoder 还原声音。</tspan>
</text>
</svg>