<svg xmlns="http://www.w3.org/2000/svg" width="1536" height="1024" viewBox="0 0 1536 1024">
<defs>
      <filter id="shadow" x="-20%" y="-20%" width="140%" height="140%"><feDropShadow dx="0" dy="18" stdDeviation="18" flood-color="#14213d" flood-opacity="0.10"/></filter>
      <marker id="arrow" markerWidth="14" markerHeight="14" refX="11" refY="7" orient="auto"><path d="M2,2 L12,7 L2,12 Z" fill="#64748b"/></marker>
      <marker id="arrowBlue" markerWidth="14" markerHeight="14" refX="11" refY="7" orient="auto"><path d="M2,2 L12,7 L2,12 Z" fill="#2f6feb"/></marker>
      <linearGradient id="hero" x1="0" x2="1"><stop offset="0" stop-color="#0f172a"/><stop offset="0.55" stop-color="#12324a"/><stop offset="1" stop-color="#075985"/></linearGradient>
    </defs>
<rect width="1536" height="1024" fill="#f8fafc"/>
<path d="M0 210 C230 145 370 260 570 180 C850 70 1120 110 1536 18 L1536 0 L0 0 Z" fill="#eaf4ff"/>
<path d="M0 1024 L1536 1024 L1536 830 C1260 890 980 800 720 874 C450 950 240 870 0 930 Z" fill="#f0f7f4"/>
<text x="88" y="82" text-anchor="start" font-family="-apple-system,BlinkMacSystemFont,'Segoe UI','PingFang SC','Microsoft YaHei',Arial,sans-serif" font-size="44" font-weight="760" fill="#162033">
<tspan x="88" dy="0">CosyVoice 3：DiffRO 与真实场景</tspan>
</text>
<text x="90" y="132" text-anchor="start" font-family="-apple-system,BlinkMacSystemFont,'Segoe UI','PingFang SC','Microsoft YaHei',Arial,sans-serif" font-size="22" font-weight="500" fill="#5f6f86">
<tspan x="90" dy="0">在 token 级优化奖励，避免完整音频级 RL 的高成本</tspan>
</text>
<rect x="90" y="278" width="130" height="42" rx="21" fill="#2f6feb" opacity="0.10" stroke="#2f6feb" stroke-width="1.2"/>
<text x="155" y="305" text-anchor="middle" font-family="-apple-system,BlinkMacSystemFont,'Segoe UI','PingFang SC','Microsoft YaHei',Arial,sans-serif" font-size="17" font-weight="720" fill="#2f6feb">
<tspan x="155" dy="0">01</tspan>
</text>
<g filter="url(#shadow)">
<rect x="90" y="340" width="248.8" height="220" rx="18" fill="#ffffff" stroke="#cbd5e1" stroke-width="1.4"/>
<rect x="90" y="340" width="8" height="220" rx="4" fill="#2f6feb"/>
</g>
<text x="118" y="382" text-anchor="start" font-family="-apple-system,BlinkMacSystemFont,'Segoe UI','PingFang SC','Microsoft YaHei',Arial,sans-serif" font-size="23" font-weight="750" fill="#162033">
<tspan x="118" dy="0">LM</tspan>
<tspan x="118" dy="29.44">logits</tspan>
</text>
<text x="118" y="422" text-anchor="start" font-family="-apple-system,BlinkMacSystemFont,'Segoe UI','PingFang SC','Microsoft YaHei',Arial,sans-serif" font-size="18" font-weight="500" fill="#5f6f86">
<tspan x="118" dy="0">生成 speech</tspan>
<tspan x="118" dy="23.04">token 分布</tspan>
</text>
<line x1="346.8" y1="450" x2="358.8" y2="450" stroke="#94a3b8" stroke-width="2.2" marker-end="url(#arrow)"/>
<rect x="366.8" y="278" width="130" height="42" rx="21" fill="#1f9d67" opacity="0.10" stroke="#1f9d67" stroke-width="1.2"/>
<text x="431.8" y="305" text-anchor="middle" font-family="-apple-system,BlinkMacSystemFont,'Segoe UI','PingFang SC','Microsoft YaHei',Arial,sans-serif" font-size="17" font-weight="720" fill="#1f9d67">
<tspan x="431.8" dy="0">02</tspan>
</text>
<g filter="url(#shadow)">
<rect x="366.8" y="340" width="248.8" height="220" rx="18" fill="#ffffff" stroke="#cbd5e1" stroke-width="1.4"/>
<rect x="366.8" y="340" width="8" height="220" rx="4" fill="#1f9d67"/>
</g>
<text x="394.8" y="382" text-anchor="start" font-family="-apple-system,BlinkMacSystemFont,'Segoe UI','PingFang SC','Microsoft YaHei',Arial,sans-serif" font-size="23" font-weight="750" fill="#162033">
<tspan x="394.8" dy="0">Gumbel-S</tspan>
<tspan x="394.8" dy="29.44">oftmax</tspan>
</text>
<text x="394.8" y="422" text-anchor="start" font-family="-apple-system,BlinkMacSystemFont,'Segoe UI','PingFang SC','Microsoft YaHei',Arial,sans-serif" font-size="18" font-weight="500" fill="#5f6f86">
<tspan x="394.8" dy="0">让采样近似可微</tspan>
</text>
<line x1="623.6" y1="450" x2="635.6" y2="450" stroke="#94a3b8" stroke-width="2.2" marker-end="url(#arrow)"/>
<rect x="643.6" y="278" width="130" height="42" rx="21" fill="#6d5bd0" opacity="0.10" stroke="#6d5bd0" stroke-width="1.2"/>
<text x="708.6" y="305" text-anchor="middle" font-family="-apple-system,BlinkMacSystemFont,'Segoe UI','PingFang SC','Microsoft YaHei',Arial,sans-serif" font-size="17" font-weight="720" fill="#6d5bd0">
<tspan x="708.6" dy="0">03</tspan>
</text>
<g filter="url(#shadow)">
<rect x="643.6" y="340" width="248.8" height="220" rx="18" fill="#ffffff" stroke="#cbd5e1" stroke-width="1.4"/>
<rect x="643.6" y="340" width="8" height="220" rx="4" fill="#6d5bd0"/>
</g>
<text x="671.6" y="382" text-anchor="start" font-family="-apple-system,BlinkMacSystemFont,'Segoe UI','PingFang SC','Microsoft YaHei',Arial,sans-serif" font-size="23" font-weight="750" fill="#162033">
<tspan x="671.6" dy="0">Token2Text</tspan>
<tspan x="671.6" dy="29.44">reward</tspan>
</text>
<text x="671.6" y="422" text-anchor="start" font-family="-apple-system,BlinkMacSystemFont,'Segoe UI','PingFang SC','Microsoft YaHei',Arial,sans-serif" font-size="18" font-weight="500" fill="#5f6f86">
<tspan x="671.6" dy="0">约束内容可还原</tspan>
</text>
<line x1="900.4000000000001" y1="450" x2="912.4000000000001" y2="450" stroke="#94a3b8" stroke-width="2.2" marker-end="url(#arrow)"/>
<rect x="920.4000000000001" y="278" width="130" height="42" rx="21" fill="#c2415a" opacity="0.10" stroke="#c2415a" stroke-width="1.2"/>
<text x="985.4000000000001" y="305" text-anchor="middle" font-family="-apple-system,BlinkMacSystemFont,'Segoe UI','PingFang SC','Microsoft YaHei',Arial,sans-serif" font-size="17" font-weight="720" fill="#c2415a">
<tspan x="985.4000000000001" dy="0">04</tspan>
</text>
<g filter="url(#shadow)">
<rect x="920.4000000000001" y="340" width="248.8" height="220" rx="18" fill="#ffffff" stroke="#cbd5e1" stroke-width="1.4"/>
<rect x="920.4000000000001" y="340" width="8" height="220" rx="4" fill="#c2415a"/>
</g>
<text x="948.4000000000001" y="382" text-anchor="start" font-family="-apple-system,BlinkMacSystemFont,'Segoe UI','PingFang SC','Microsoft YaHei',Arial,sans-serif" font-size="23" font-weight="750" fill="#162033">
<tspan x="948.4000000000001" dy="0">KL</tspan>
<tspan x="948.4000000000001" dy="29.44">constraint</tspan>
</text>
<text x="948.4000000000001" y="422" text-anchor="start" font-family="-apple-system,BlinkMacSystemFont,'Segoe UI','PingFang SC','Microsoft YaHei',Arial,sans-serif" font-size="18" font-weight="500" fill="#5f6f86">
<tspan x="948.4000000000001" dy="0">限制偏离</tspan>
<tspan x="948.4000000000001" dy="23.04">reference</tspan>
<tspan x="948.4000000000001" dy="23.04">model</tspan>
</text>
<line x1="1177.2" y1="450" x2="1189.2" y2="450" stroke="#94a3b8" stroke-width="2.2" marker-end="url(#arrow)"/>
<rect x="1197.2" y="278" width="130" height="42" rx="21" fill="#b7791f" opacity="0.10" stroke="#b7791f" stroke-width="1.2"/>
<text x="1262.2" y="305" text-anchor="middle" font-family="-apple-system,BlinkMacSystemFont,'Segoe UI','PingFang SC','Microsoft YaHei',Arial,sans-serif" font-size="17" font-weight="720" fill="#b7791f">
<tspan x="1262.2" dy="0">05</tspan>
</text>
<g filter="url(#shadow)">
<rect x="1197.2" y="340" width="248.8" height="220" rx="18" fill="#ffffff" stroke="#cbd5e1" stroke-width="1.4"/>
<rect x="1197.2" y="340" width="8" height="220" rx="4" fill="#b7791f"/>
</g>
<text x="1225.2" y="382" text-anchor="start" font-family="-apple-system,BlinkMacSystemFont,'Segoe UI','PingFang SC','Microsoft YaHei',Arial,sans-serif" font-size="23" font-weight="750" fill="#162033">
<tspan x="1225.2" dy="0">Better</tspan>
<tspan x="1225.2" dy="29.44">tokens</tspan>
</text>
<text x="1225.2" y="422" text-anchor="start" font-family="-apple-system,BlinkMacSystemFont,'Segoe UI','PingFang SC','Microsoft YaHei',Arial,sans-serif" font-size="18" font-weight="500" fill="#5f6f86">
<tspan x="1225.2" dy="0">改善长尾文本和多语种鲁</tspan>
<tspan x="1225.2" dy="23.04">棒性</tspan>
</text>
</svg>